<?xml version="1.0" encoding="UTF-8" standalone="no"?>
<!DOCTYPE svg PUBLIC "-//W3C//DTD SVG 20010904//EN"
              "http://www.w3.org/TR/2001/REC-SVG-20010904/DTD/svg10.dtd">

<svg xmlns="http://www.w3.org/2000/svg"
     width="0.333333in" height="0.333333in"
     viewBox="0 0 100 100">
  <path id="Безымянный #2"
        fill="none" stroke="black" stroke-width="1"
        d="M 43.30,8.91
           C 43.30,8.91 42.18,10.29 42.18,10.29
             42.18,10.29 43.80,11.66 43.80,11.66
             43.80,11.66 45.02,10.25 45.02,10.25
             45.02,10.25 43.34,8.85 43.34,8.85M 39.83,16.65
           C 39.83,16.65 41.41,17.97 41.41,17.97
             41.41,17.97 44.78,18.70 44.78,18.70
             44.78,18.70 49.19,18.66 49.19,18.66
             49.19,18.66 53.61,18.61 53.61,18.61
             53.61,18.61 56.25,17.41 56.25,17.41
             56.25,17.41 57.59,15.88 57.59,15.88M 52.03,8.59
           C 52.03,8.59 50.91,9.97 50.91,9.97
             50.91,9.97 52.53,11.34 52.53,11.34
             52.53,11.34 53.75,9.94 53.75,9.94
             53.75,9.94 52.06,8.53 52.06,8.53" />
</svg>
