<?xml version="1.0" encoding="UTF-8" standalone="no"?>
<!DOCTYPE svg PUBLIC "-//W3C//DTD SVG 20010904//EN"
              "http://www.w3.org/TR/2001/REC-SVG-20010904/DTD/svg10.dtd">

<svg xmlns="http://www.w3.org/2000/svg"
     width="0.333333in" height="0.333333in"
     viewBox="0 0 100 100">
  <path id="Безымянный #4"
        fill="none" stroke="black" stroke-width="1"
        d="M 25.00,99.75
           C 25.00,99.75 28.50,89.12 28.50,89.12
             28.50,89.12 33.00,76.12 33.00,76.12
             33.00,76.12 35.50,63.88 35.50,63.88
             35.50,63.88 36.12,53.38 36.12,53.38
             36.12,53.38 36.50,47.00 36.50,47.00
             36.50,47.00 34.62,45.00 34.62,45.00
             34.62,45.00 31.50,43.88 31.50,43.88
             31.50,43.88 27.38,46.25 27.38,46.25
             27.38,46.25 21.88,49.88 21.88,49.88
             21.88,49.88 17.50,52.38 17.50,52.38
             17.50,52.38 14.12,51.88 14.12,51.88
             14.12,51.88 7.75,47.88 7.75,47.88
             7.75,47.88 2.75,40.38 2.75,40.38
             2.75,40.38 0.00,36.00 0.00,36.00M 64.75,99.88
           C 64.75,99.88 63.88,94.12 63.88,94.12
             63.88,94.12 60.50,82.75 60.50,82.75
             60.50,82.75 57.25,75.38 57.25,75.38
             57.25,75.38 54.00,71.12 54.00,71.12
             54.00,71.12 51.50,69.50 51.50,69.50
             51.50,69.50 48.62,69.38 48.62,69.38
             48.62,69.38 46.00,72.62 46.00,72.62
             46.00,72.62 43.50,77.88 43.50,77.88
             43.50,77.88 40.62,84.88 40.62,84.88
             40.62,84.88 37.75,100.25 37.75,100.25M 99.62,72.25
           C 99.62,72.25 95.38,67.00 95.38,67.00
             95.38,67.00 90.62,61.00 90.62,61.00
             90.62,61.00 81.88,53.12 81.88,53.12
             81.88,53.12 72.12,45.88 72.12,45.88
             72.12,45.88 65.62,44.75 65.62,44.75
             65.62,44.75 62.62,45.88 62.62,45.88
             62.62,45.88 62.38,51.00 62.38,51.00
             62.38,51.00 63.38,61.25 63.38,61.25
             63.38,61.25 66.75,73.38 66.75,73.38
             66.75,73.38 71.25,84.88 71.25,84.88
             71.25,84.88 77.75,99.75 77.75,99.75M 55.00,0.12
           C 55.00,0.12 57.62,3.62 57.62,3.62
             57.62,3.62 60.00,7.50 60.00,7.50
             60.00,7.50 62.12,12.25 62.12,12.25
             62.12,12.25 63.38,15.88 63.38,15.88
             63.38,15.88 62.75,19.50 62.75,19.50
             62.75,19.50 59.88,22.38 59.88,22.38
             59.88,22.38 57.62,25.88 57.62,25.88
             57.62,25.88 56.50,29.25 56.50,29.25
             56.50,29.25 56.50,32.38 56.50,32.38
             56.50,32.38 59.50,33.38 59.50,33.38
             59.50,33.38 64.25,32.25 64.25,32.25
             64.25,32.25 68.50,32.12 68.50,32.12
             68.50,32.12 72.38,33.12 72.38,33.12
             72.38,33.12 77.00,35.88 77.00,35.88
             77.00,35.88 81.88,40.00 81.88,40.00
             81.88,40.00 88.62,47.62 88.62,47.62
             88.62,47.62 95.00,55.00 95.00,55.00
             95.00,55.00 99.75,62.38 99.75,62.38M 0.50,25.62
           C 0.50,25.62 5.25,32.88 6.62,34.12
             6.62,34.12 13.00,40.25 13.00,40.25
             13.00,40.25 18.62,41.25 18.62,41.25
             18.62,41.25 24.25,38.38 24.25,38.38
             24.25,38.38 30.25,32.62 30.25,32.62
             30.25,32.62 37.50,32.88 37.50,32.88
             37.50,32.88 41.00,33.62 41.00,33.62
             41.00,33.62 43.12,32.00 43.12,32.00
             43.12,32.00 41.50,26.50 41.50,26.50
             41.50,26.50 36.12,21.62 36.12,21.62
             36.12,21.62 34.38,16.62 34.38,16.62
             34.38,16.62 35.75,10.00 35.75,10.00
             35.75,10.00 41.88,0.38 41.88,0.38" />
</svg>
